<svg width="1280" height="720" viewBox="0 0 1280 720" fill="none" xmlns="http://www.w3.org/2000/svg" role="img" aria-labelledby="title desc">
  <title id="title">Dwelling Fee product overview</title>
  <desc id="desc">A warm dashboard mockup showing ingest, review, property intelligence, map, and analytics surfaces.</desc>
  <defs>
    <filter id="shadow" x="-20%" y="-20%" width="140%" height="140%" color-interpolation-filters="sRGB">
      <feDropShadow dx="0" dy="18" stdDeviation="22" flood-color="#382A1E" flood-opacity="0.14"/>
      <feDropShadow dx="0" dy="2" stdDeviation="4" flood-color="#382A1E" flood-opacity="0.08"/>
    </filter>
    <linearGradient id="sage" x1="0" y1="0" x2="1" y2="1">
      <stop stop-color="#CCD67F"/>
      <stop offset="1" stop-color="#76823A"/>
    </linearGradient>
    <linearGradient id="paper" x1="0" y1="0" x2="1" y2="1">
      <stop stop-color="#FCF7EE"/>
      <stop offset="1" stop-color="#F3E4C9"/>
    </linearGradient>
  </defs>

  <rect width="1280" height="720" rx="36" fill="#F4EADA"/>
  <path d="M0 500C178 438 298 515 470 462C642 409 682 309 870 330C1058 351 1112 245 1280 282V720H0V500Z" fill="#E6EBC4" opacity="0.62"/>
  <path d="M0 118C162 93 276 136 418 107C566 77 612 31 780 77C948 123 1052 53 1280 77V0H0V118Z" fill="#EEE1CD" opacity="0.62"/>

  <g filter="url(#shadow)">
    <rect x="76" y="64" width="1128" height="592" rx="26" fill="url(#paper)"/>
    <rect x="76" y="64" width="1128" height="72" rx="26" fill="#382A1E"/>
    <rect x="76" y="110" width="1128" height="26" fill="#382A1E"/>
  </g>

  <g transform="translate(106 86)">
    <circle cx="18" cy="18" r="18" fill="#CCD67F"/>
    <path d="M10 20L18 10L26 20V28H21V22H15V28H10V20Z" fill="#382A1E"/>
    <text x="50" y="15" fill="#FBF3E6" font-family="Inter, ui-sans-serif, system-ui, sans-serif" font-size="18" font-weight="800">Dwelling Fee</text>
    <text x="50" y="35" fill="#CDBBA8" font-family="Inter, ui-sans-serif, system-ui, sans-serif" font-size="12" font-weight="600">Housing price intelligence</text>
  </g>

  <g transform="translate(462 87)" font-family="Inter, ui-sans-serif, system-ui, sans-serif" font-size="13" font-weight="700">
    <rect x="0" y="0" width="84" height="34" rx="17" fill="#8A5F41"/>
    <text x="24" y="22" fill="#FBF3E6">Ingest</text>
    <text x="112" y="22" fill="#CDBBA8">Review</text>
    <text x="202" y="22" fill="#CDBBA8">Properties</text>
    <text x="322" y="22" fill="#CDBBA8">Map</text>
    <text x="388" y="22" fill="#CDBBA8">Collect</text>
    <text x="484" y="22" fill="#CDBBA8">Analytics</text>
  </g>

  <g transform="translate(106 166)">
    <rect width="250" height="430" rx="20" fill="#FCF7EE"/>
    <rect width="250" height="430" rx="20" stroke="#E4D3C2"/>
    <text x="22" y="34" fill="#382A1E" font-family="Inter, ui-sans-serif, system-ui, sans-serif" font-size="17" font-weight="800">Collection sessions</text>
    <rect x="22" y="56" width="94" height="32" rx="16" fill="#8A5F41"/>
    <text x="48" y="77" fill="#FBF3E6" font-family="Inter, ui-sans-serif, system-ui, sans-serif" font-size="13" font-weight="700">New</text>
    <g font-family="Inter, ui-sans-serif, system-ui, sans-serif">
      <rect x="16" y="112" width="218" height="58" rx="14" fill="#E6EBC4"/>
      <text x="34" y="137" fill="#382A1E" font-size="14" font-weight="800">Eco Green 2PN</text>
      <text x="34" y="157" fill="#6E5A48" font-size="12" font-weight="600">3 draft · today</text>
      <circle cx="216" cy="135" r="5" fill="#76823A"/>
      <rect x="16" y="184" width="218" height="58" rx="14" fill="#FBF3E6"/>
      <text x="34" y="209" fill="#382A1E" font-size="14" font-weight="700">Vinhomes Grand Park</text>
      <text x="34" y="229" fill="#9C8975" font-size="12" font-weight="600">8 obs · yesterday</text>
      <circle cx="216" cy="207" r="5" fill="#5E7A2E"/>
      <rect x="16" y="256" width="218" height="58" rx="14" fill="#FBF3E6"/>
      <text x="34" y="281" fill="#382A1E" font-size="14" font-weight="700">Binh Thanh townhouse</text>
      <text x="34" y="301" fill="#9C8975" font-size="12" font-weight="600">2 draft · 3d ago</text>
      <circle cx="216" cy="279" r="5" fill="#B47D33"/>
    </g>
  </g>

  <g transform="translate(384 166)">
    <rect width="474" height="430" rx="20" fill="#FCF7EE"/>
    <rect width="474" height="430" rx="20" stroke="#E4D3C2"/>
    <text x="24" y="36" fill="#382A1E" font-family="Inter, ui-sans-serif, system-ui, sans-serif" font-size="17" font-weight="800">Conversational ingest</text>
    <text x="24" y="60" fill="#9C8975" font-family="Inter, ui-sans-serif, system-ui, sans-serif" font-size="12" font-weight="700">Broker message → structured draft → commit</text>
    <g font-family="Inter, ui-sans-serif, system-ui, sans-serif">
      <rect x="24" y="92" width="290" height="66" rx="18" fill="#8A5F41"/>
      <text x="44" y="120" fill="#FBF3E6" font-size="14" font-weight="700">Can 2PN Eco Green 71m2...</text>
      <text x="44" y="141" fill="#F3E4C9" font-size="12" font-weight="500">price 4.8 ty, block HR2</text>
      <rect x="128" y="184" width="322" height="86" rx="18" fill="#FBF3E6"/>
      <rect x="128" y="184" width="322" height="86" rx="18" stroke="#E4D3C2"/>
      <text x="150" y="212" fill="#382A1E" font-size="14" font-weight="800">Extracted one asking signal</text>
      <text x="150" y="234" fill="#6E5A48" font-size="12" font-weight="600">Need legal status and observed date.</text>
      <rect x="150" y="246" width="126" height="20" rx="10" fill="#E6EBC4"/>
      <text x="164" y="261" fill="#76823A" font-size="11" font-weight="800">confidence 0.86</text>
      <rect x="24" y="306" width="426" height="84" rx="18" fill="#EEE1CD"/>
      <text x="44" y="335" fill="#382A1E" font-size="14" font-weight="800">Price observation draft</text>
      <text x="44" y="358" fill="#6E5A48" font-size="12" font-weight="600">4.8B VND · 71m2 · apartment · asking</text>
      <rect x="326" y="332" width="96" height="34" rx="17" fill="url(#sage)"/>
      <text x="348" y="354" fill="#FBF3E6" font-size="13" font-weight="800">Ready</text>
    </g>
  </g>

  <g transform="translate(886 166)">
    <rect width="288" height="430" rx="20" fill="#FCF7EE"/>
    <rect width="288" height="430" rx="20" stroke="#E4D3C2"/>
    <text x="24" y="36" fill="#382A1E" font-family="Inter, ui-sans-serif, system-ui, sans-serif" font-size="17" font-weight="800">Market view</text>
    <text x="24" y="60" fill="#9C8975" font-family="Inter, ui-sans-serif, system-ui, sans-serif" font-size="12" font-weight="700">Median, IQR, samples, provenance</text>
    <g transform="translate(24 92)">
      <rect width="240" height="118" rx="18" fill="#FBF3E6"/>
      <rect width="240" height="118" rx="18" stroke="#E4D3C2"/>
      <text x="18" y="28" fill="#382A1E" font-family="Inter, ui-sans-serif, system-ui, sans-serif" font-size="14" font-weight="800">Price/m2 distribution</text>
      <line x1="22" y1="74" x2="218" y2="74" stroke="#9C8975" stroke-width="2" opacity="0.45"/>
      <rect x="74" y="60" width="96" height="28" rx="8" fill="#CCD67F"/>
      <rect x="118" y="54" width="5" height="40" rx="2.5" fill="#382A1E"/>
      <text x="22" y="104" fill="#6E5A48" font-family="Inter, ui-sans-serif, system-ui, sans-serif" font-size="12" font-weight="700">n=18 · asking · sale</text>
    </g>
    <g transform="translate(24 238)">
      <rect width="240" height="132" rx="18" fill="#FBF3E6"/>
      <rect width="240" height="132" rx="18" stroke="#E4D3C2"/>
      <circle cx="68" cy="72" r="34" fill="#E6EBC4"/>
      <circle cx="116" cy="54" r="24" fill="#F3E4C9"/>
      <circle cx="156" cy="86" r="32" fill="#E4D3C2"/>
      <circle cx="124" cy="82" r="8" fill="#8A5F41"/>
      <circle cx="98" cy="58" r="6" fill="#76823A"/>
      <text x="18" y="28" fill="#382A1E" font-family="Inter, ui-sans-serif, system-ui, sans-serif" font-size="14" font-weight="800">Location heatmap</text>
      <text x="18" y="116" fill="#6E5A48" font-family="Inter, ui-sans-serif, system-ui, sans-serif" font-size="12" font-weight="700">PostGIS-ready spatial layer</text>
    </g>
  </g>
</svg>
